<?xml version="1.0" standalone="no"?>
<!DOCTYPE svg PUBLIC "-//W3C//DTD SVG 20010904//EN"
 "http://www.w3.org/TR/2001/REC-SVG-20010904/DTD/svg10.dtd">
<svg version="1.0" xmlns="http://www.w3.org/2000/svg"
 width="512.000000pt" height="512.000000pt" viewBox="0 0 512.000000 512.000000"
 preserveAspectRatio="xMidYMid meet">
<metadata>
Created by potrace 1.14, written by Peter Selinger 2001-2017
</metadata>
<g transform="translate(0.000000,512.000000) scale(0.100000,-0.100000)"
fill="#000000" stroke="none">
<path d="M534 4710 l-141 -5 -85 -42 c-134 -67 -251 -204 -286 -333 -15 -58
-16 -147 -15 -1056 l0 -872 43 -87 c69 -143 212 -268 346 -304 38 -10 232 -19
452 -20 l92 -1 0 -308 0 -309 29 -40 c30 -42 100 -83 140 -83 65 0 105 35 521
447 l294 293 731 1 c956 1 1003 3 1097 40 71 28 124 67 196 144 73 78 117 158
133 246 13 70 21 1580 9 1785 -6 100 -10 118 -44 189 -56 118 -139 207 -256
272 -83 47 -29 45 -1613 47 -826 0 -1565 -1 -1643 -4z"/>
<path d="M4369 2948 c-1 -557 -4 -591 -79 -754 -96 -208 -270 -362 -495 -438
-77 -26 -90 -27 -339 -31 -142 -3 -520 -5 -840 -5 l-582 -1 -161 -162 -161
-162 17 -55 c24 -76 43 -108 95 -167 52 -58 126 -109 205 -142 59 -25 2 -24
1291 -31 l185 -1 274 -270 c150 -148 289 -281 307 -296 70 -53 194 -28 239 48
18 31 20 55 23 274 2 132 5 241 5 241 1 1 83 4 182 8 187 6 249 17 329 57 67
33 166 135 204 211 28 55 34 78 41 173 10 141 11 1323 0 1434 -14 160 -112
297 -264 371 -74 36 -142 46 -331 49 l-144 2 -1 -353z"/>
</g>
</svg>
